HIERARCHY
ROOT root
{
	OFFSET	0	13.1	24.9
	CHANNELS 6  Xposition Yposition Zposition Xrotation Yrotation Zrotation
	JOINT spine_1
	{
		OFFSET	0	9.99999	0
		CHANNELS 3  Xrotation Yrotation Zrotation
		JOINT spine_2
		{
			OFFSET	0	112	-10
			CHANNELS 3  Xrotation Yrotation Zrotation
			JOINT spine_3
			{
				OFFSET	0	206.5	19.3
				CHANNELS 3  Xrotation Yrotation Zrotation
				JOINT spine_4
				{
					OFFSET	0	110.4	14.6
					CHANNELS 3  Xrotation Yrotation Zrotation
					JOINT neck_1
					{
						OFFSET	0	71.8	-50.3
						CHANNELS 3  Xrotation Yrotation Zrotation
						JOINT neck_2
						{
							OFFSET	0	86.2	-25.8
							CHANNELS 3  Xrotation Yrotation Zrotation
							JOINT head_ee
							{
								OFFSET	0	179.8	-8.7
								CHANNELS 3  Xrotation Yrotation Zrotation
								End Site
								{
									OFFSET	1	0	0
								}
							}
						}
					}
					JOINT left_clavicle
					{
						OFFSET	-43.2	22.4	-70.8
						CHANNELS 3  Xrotation Yrotation Zrotation
						JOINT left_shoulder
						{
							OFFSET	-93.9	-5.79999	48.7
							CHANNELS 3  Xrotation Yrotation Zrotation
							JOINT left_elbow
							{
								OFFSET	-291.4	-30.8	15.2
								CHANNELS 3  Xrotation Yrotation Zrotation
								JOINT left_lowarm_twist
								{
									OFFSET	-110.7	-3.89999	13.6
									CHANNELS 3  Xrotation Yrotation Zrotation
									JOINT left_hand
									{
										OFFSET	-110.7	-3.89999	13.6
										CHANNELS 3  Xrotation Yrotation Zrotation
										JOINT left_ee
										{
											OFFSET	-80.8	-5.10001	12.1
											CHANNELS 3  Xrotation Yrotation Zrotation
											End Site
											{
												OFFSET	1	0	0
											}
										}
									}
								}
							}
						}
					}
					JOINT right_clavicle
					{
						OFFSET	43.2	22.4	-70.8
						CHANNELS 3  Xrotation Yrotation Zrotation
						JOINT right_shoulder
						{
							OFFSET	93.9	-5.79999	48.7
							CHANNELS 3  Xrotation Yrotation Zrotation
							JOINT right_elbow
							{
								OFFSET	291.4	-30.8	15.2
								CHANNELS 3  Xrotation Yrotation Zrotation
								JOINT right_lowarm_twist
								{
									OFFSET	110.7	-3.89999	13.6
									CHANNELS 3  Xrotation Yrotation Zrotation
									JOINT right_hand
									{
										OFFSET	110.7	-3.89999	13.6
										CHANNELS 3  Xrotation Yrotation Zrotation
										JOINT right_ee
										{
											OFFSET	80.8	-5.10001	12.1
											CHANNELS 3  Xrotation Yrotation Zrotation
											End Site
											{
												OFFSET	1	0	0
											}
										}
									}
								}
							}
						}
					}
				}
			}
		}
	}
	JOINT left_hip
	{
		OFFSET	-82.8	-127.5	0.300001
		CHANNELS 3  Xrotation Yrotation Zrotation
		JOINT left_knee
		{
			OFFSET	-28.2	-396.7	2.2
			CHANNELS 3  Xrotation Yrotation Zrotation
			JOINT left_ankle
			{
				OFFSET	-11.7	-411.3	35.4
				CHANNELS 3  Xrotation Yrotation Zrotation
				JOINT left_toes
				{
					OFFSET	0	-60	-88.6
					CHANNELS 3  Xrotation Yrotation Zrotation
					JOINT left_foot_ee
					{
						OFFSET	-22.5	-16.5	-42.2
						CHANNELS 3  Xrotation Yrotation Zrotation
						End Site
						{
							OFFSET	1	0	0
						}
					}
				}
			}
		}
	}
	JOINT right_hip
	{
		OFFSET	82.8	-127.5	0.300001
		CHANNELS 3  Xrotation Yrotation Zrotation
		JOINT right_knee
		{
			OFFSET	28.2	-396.7	2.2
			CHANNELS 3  Xrotation Yrotation Zrotation
			JOINT right_ankle
			{
				OFFSET	11.7	-411.3	35.4
				CHANNELS 3  Xrotation Yrotation Zrotation
				JOINT right_toes
				{
					OFFSET	0	-60	-88.6
					CHANNELS 3  Xrotation Yrotation Zrotation
					JOINT right_foot_ee
					{
						OFFSET	22.5	-16.5	-42.2
						CHANNELS 3  Xrotation Yrotation Zrotation
						End Site
						{
							OFFSET	1	0	0
						}
					}
				}
			}
		}
	}
}
MOTION
Frames: 5
Frame Time: 0.02
3589.44 789.313 -600.601 -5.16489 69.8088 4.12411 -1.44366 -0.181681 0.245769 -1.44365 -0.196951 0.23371 -1.44447 -0.246313 0.180942 -1.44446 -0.214645 0.217572 3.6265 15.7012 4.30119 4.19955 23.624 5.70573 -0.0 0.0 -0.0 6.08063 2.61285 11.8032 -11.0269 -17.0732 61.4668 0.936841 -24.8948 0.206795 17.4012 0.28151 -2.19649 1.23486 -4.51416 6.41935 -0.0 0.0 -0.0 9.89397 -2.95635 -19.2701 -17.9405 18.1336 -58.6613 0.744086 20.2338 -0.13277 22.1229 -0.241983 2.79813 0.940545 3.43071 -4.88023 0.0 0.0 0.0 16.2093 25.8984 -16.6836 -12.6778 0.311011 1.91677 -11.5763 -15.0189 1.88907 24.0193 -0.0 -0.0 -0.0 0.0 -0.0 -1.53348 -3.72538 -1.77146 6.42151 0.317172 0.933528 11.1129 2.82635 1.6009 -5.60614 0.0 0.0 0.0 0.0 0.0 
3587.83 788.906 -602.331 -6.00124 69.4461 5.18625 -1.37043 -0.170521 0.113721 -1.37044 -0.177412 0.10264 -1.37078 -0.196474 0.0583755 -1.37074 -0.184789 0.0886724 4.59713 15.8734 4.07545 5.22596 23.8622 5.34224 -0.0 0.0 -0.0 5.89601 3.11136 11.4529 -10.8506 -16.5251 62.0443 0.946507 -25.1201 0.210881 17.0983 0.282352 -2.15782 1.27514 -4.02765 6.89544 -0.0 0.0 -0.0 9.91626 -2.98183 -19.3133 -17.8949 17.8732 -58.3819 0.739752 20.1254 -0.131275 22.2586 -0.240114 2.81537 0.919323 3.09704 -4.87581 0.0 0.0 0.0 16.5073 26.0876 -17.0858 -12.5248 0.309802 1.89333 -11.984 -15.8068 1.96869 23.5358 -0.0 -0.0 -0.0 0.0 -0.0 -1.30193 -3.70241 -2.30116 6.42264 0.317237 0.933689 11.2144 3.0027 1.61584 -5.66299 0.0 0.0 0.0 0.0 0.0 
3590.08 788.711 -604.847 -6.67088 69.2733 5.52028 -1.3691 -0.18698 0.220157 -1.3691 -0.20061 0.207813 -1.36986 -0.243588 0.155227 -1.36982 -0.216015 0.191749 4.31507 15.9191 4.53742 4.91695 23.6155 5.90421 -0.0 0.0 -0.0 5.92182 3.81441 11.506 -10.7846 -16.1776 62.1509 0.941295 -24.9988 0.208674 17.1845 0.282133 -2.16882 1.42473 -5.43482 7.32248 -0.0 0.0 -0.0 10.0128 -2.20383 -19.5582 -17.5 16.9055 -58.7321 0.762959 20.7039 -0.13937 22.6902 -0.2339 2.87015 0.917224 3.2803 -4.78543 0.0 0.0 0.0 16.1492 25.4875 -16.1882 -12.0685 0.305823 1.82344 -9.07663 -14.6254 1.47153 23.5338 -0.0 -0.0 -0.0 0.0 -0.0 -0.714789 -4.47468 -2.325 5.91226 0.288209 0.860826 12.9599 1.41849 1.84568 -5.98374 0.0 0.0 0.0 0.0 0.0 
3589.7 789.23 -604.689 -6.33724 68.1618 5.12438 -1.32481 -0.0528902 0.439335 -1.3247 -0.0807388 0.435079 -1.32526 -0.179782 0.404341 -1.32547 -0.113668 0.427659 4.77016 16.4434 4.36436 5.44635 24.5542 5.66582 -0.0 0.0 -0.0 5.68986 3.41325 11.0629 -11.6602 -16.1802 61.675 0.990653 -26.1385 0.229977 16.285 0.2836 -2.05395 1.27734 -2.42519 7.57397 -0.0 0.0 -0.0 10.0755 -1.955 -19.7012 -16.0993 15.979 -59.0189 0.744728 20.2498 -0.132992 22.6919 -0.233876 2.87036 0.840832 3.4166 -4.2133 0.0 0.0 0.0 16.6369 23.9277 -16.2364 -13.1365 0.314261 1.98708 -12.1888 -16.8934 2.02068 22.7393 -0.0 -0.0 -0.0 0.0 -0.0 -0.768405 -2.06281 -1.77826 6.05572 0.296303 0.881332 13.2803 3.39277 1.90045 -5.39896 0.0 0.0 0.0 0.0 0.0 
3592.94 789.519 -604.008 -7.6391 67.2844 6.05131 -1.43257 0.0292211 0.380305 -1.43249 0.00496225 0.381394 -1.43239 -0.084633 0.371918 -1.43258 -0.0248338 0.380616 5.24796 16.5084 4.05155 5.96365 24.8076 5.2506 -0.0 0.0 -0.0 5.61857 3.68224 10.9304 -11.7498 -16.1607 61.8548 1.02078 -26.8234 0.24341 16.2992 0.283591 -2.05575 1.32765 -2.29709 7.9677 -0.0 0.0 -0.0 10.1442 -1.30516 -19.881 -15.4592 15.9115 -58.6157 0.752436 20.4421 -0.135672 22.6514 -0.234476 2.86522 0.855279 3.82725 -4.13939 0.0 0.0 0.0 17.3569 23.9381 -15.7221 -12.7291 0.311403 1.92464 -11.2107 -18.2941 1.87884 22.6104 -0.0 -0.0 -0.0 0.0 -0.0 0.474905 -2.2343 -1.58275 5.64579 0.273313 0.822684 14.3816 3.71363 2.05093 -5.0487 0.0 0.0 0.0 0.0 0.0 
